# xmcd CD database file
#
# Track frame offsets:
#	150
#	1872
#	34105
#	59392
#	89820
#	110157
#	145635
#	160840
#	176830
#	194535
#	228327
#	239175
#
# Disc length: 3351 seconds
#
# Revision: 0
# Processed by: cddbd v1.5.1PL0 Copyright (c) Steve Scherf et al.
# Submitted via: CDex 1.51
#
DISCID=a90d150c
DTITLE=Wall Matthews and Aleta Greene - The Color of Dusk
DYEAR=1996
DGENRE=New Age
TTITLE0=Jenny in Love
TTITLE1=Ndzeli in Passage/Jenny in Love
TTITLE2=Jenny in Tears/Jenny in Love
TTITLE3=Leah: In Freedom
TTITLE4=Prunella's Picnic/Jenny in Love
TTITLE5=Tildy's Prayer
TTITLE6=Julia, Carrying Water
TTITLE7=Lucy Sleeps With Master Muford
TTITLE8=A Slightly Colored Lady
TTITLE9=A Slightly Colored Lady
TTITLE10=The Prayin' Ground II
TTITLE11=Canticle of a Black Lady
EXTD=YEAR: 1996
EXTT0=
EXTT1=
EXTT2=
EXTT3=
EXTT4=
EXTT5=
EXTT6=
EXTT7=
EXTT8=
EXTT9=
EXTT10=
EXTT11=
PLAYORDER=
